<svg width="45" height="45" viewBox="0 0 45 45" fill="none" xmlns="http://www.w3.org/2000/svg">
<circle cx="22.3502" cy="22.3512" r="21.4948" fill="url(#paint0_linear_69_1155)"/>
<g clip-path="url(#clip0_69_1155)">
<path d="M25.9088 29.5887C25.548 29.5887 25.4127 29.4083 25.4578 29.0925L27.8482 15.6099C27.8933 15.2942 28.0737 15.1138 28.4345 15.1138H33.4859C36.8686 15.1138 38.5374 16.1511 38.5374 18.2709C38.5374 19.1264 38.3119 19.8932 37.8608 20.526C37.4098 21.2025 36.7784 21.6535 35.9666 21.9227C36.5078 22.0581 37.0039 22.3738 37.3196 22.8699C37.6804 23.3209 37.8608 23.9523 37.8608 24.674C37.8608 26.3864 37.2745 27.6056 36.1019 28.416C34.9292 29.1827 33.3506 29.5887 31.4113 29.5887H25.9088ZM31.5015 27.2434C33.8468 27.2434 35.0194 26.3869 35.0194 24.674C35.0194 24.1327 34.7939 23.7719 34.388 23.5013C33.9821 23.2307 33.2604 23.1405 32.3133 23.1405H29.3817L28.66 27.1997H31.5015V27.2434ZM32.5839 21.0658C34.6586 21.0658 35.6508 20.2991 35.6508 18.7219C35.6508 18.2258 35.4704 17.9101 35.0645 17.6846C34.6586 17.4591 34.0272 17.3689 33.1702 17.3689H30.3739L29.6974 21.0658H32.5839ZM22.887 20.705C22.8863 20.478 22.7957 20.2604 22.6352 20.0999C22.4746 19.9393 22.2571 19.8488 22.0301 19.8481H5.56787C5.3406 19.8481 5.12263 19.9383 4.96193 20.0991C4.80122 20.2598 4.71094 20.4777 4.71094 20.705C4.71094 20.9323 4.80122 21.1502 4.96193 21.3109C5.12263 21.4716 5.3406 21.5619 5.56787 21.5619H21.985C22.4811 21.5619 22.887 21.2011 22.887 20.705ZM24.7813 17.6395C24.7805 17.4124 24.69 17.1949 24.5295 17.0344C24.3689 16.8738 24.1514 16.7833 23.9243 16.7825H13.8215C13.709 16.7825 13.5976 16.8047 13.4936 16.8478C13.3896 16.8908 13.2951 16.954 13.2156 17.0335C13.136 17.1131 13.0729 17.2076 13.0298 17.3115C12.9867 17.4155 12.9646 17.5269 12.9646 17.6395C12.9646 17.752 12.9867 17.8634 13.0298 17.9674C13.0729 18.0714 13.136 18.1658 13.2156 18.2454C13.2951 18.325 13.3896 18.3881 13.4936 18.4312C13.5976 18.4742 13.709 18.4964 13.8215 18.4964H23.9243C24.3754 18.4964 24.7813 18.1356 24.7813 17.6395ZM21.3084 27.0179C21.3077 26.7908 21.2172 26.5733 21.0566 26.4127C20.8961 26.2522 20.6785 26.1617 20.4515 26.1609H16.3472C16.12 26.1609 15.902 26.2512 15.7413 26.4119C15.5806 26.5726 15.4903 26.7906 15.4903 27.0179C15.4903 27.2451 15.5806 27.4631 15.7413 27.6238C15.902 27.7845 16.12 27.8748 16.3472 27.8748H20.4515C20.9025 27.8748 21.3084 27.514 21.3084 27.0179ZM20.0907 23.817C20.0899 23.59 19.9994 23.3724 19.8389 23.2119C19.6783 23.0514 19.4608 22.9608 19.2337 22.9601H9.22113C9.10859 22.9601 8.99716 22.9823 8.89319 23.0253C8.78922 23.0684 8.69476 23.1315 8.61518 23.2111C8.53561 23.2907 8.47249 23.3851 8.42942 23.4891C8.38636 23.5931 8.36419 23.7045 8.36419 23.817C8.36419 23.9296 8.38636 24.041 8.42942 24.145C8.47249 24.2489 8.53561 24.3434 8.61518 24.423C8.69476 24.5025 8.78922 24.5657 8.89319 24.6087C8.99716 24.6518 9.10859 24.674 9.22113 24.674H19.2337C19.4586 24.6662 19.6721 24.5735 19.8311 24.4144C19.9902 24.2554 20.083 24.0418 20.0907 23.817Z" fill="#007AFF"/>
</g>
<defs>
<linearGradient id="paint0_linear_69_1155" x1="22.3502" y1="0.856445" x2="22.3502" y2="43.846" gradientUnits="userSpaceOnUse">
<stop stop-color="#5DA1EC"/>
<stop offset="0.641" stop-color="#2D3995"/>
<stop offset="0.941" stop-color="#101642"/>
</linearGradient>
<clipPath id="clip0_69_1155">
<rect width="33.8264" height="33.8264" fill="white" transform="translate(4.71094 5.43799)"/>
</clipPath>
</defs>
</svg>
