<svg width="41" height="40" viewBox="0 0 41 40" fill="none" xmlns="http://www.w3.org/2000/svg">
<path d="M28.8327 29.9999C26.9827 29.9999 25.4993 31.4833 25.4993 33.3333C25.4993 34.2173 25.8505 35.0652 26.4757 35.6903C27.1008 36.3154 27.9486 36.6666 28.8327 36.6666C29.7167 36.6666 30.5646 36.3154 31.1897 35.6903C31.8148 35.0652 32.166 34.2173 32.166 33.3333C32.166 32.4492 31.8148 31.6014 31.1897 30.9762C30.5646 30.3511 29.7167 29.9999 28.8327 29.9999ZM2.16602 3.33325V6.66659H5.49935L11.4993 19.3166L9.23268 23.3999C8.98268 23.8666 8.83268 24.4166 8.83268 24.9999C8.83268 25.884 9.18387 26.7318 9.80899 27.3569C10.4341 27.9821 11.282 28.3333 12.166 28.3333H32.166V24.9999H12.866C12.7555 24.9999 12.6495 24.956 12.5714 24.8779C12.4932 24.7997 12.4493 24.6938 12.4493 24.5833C12.4493 24.4999 12.466 24.4333 12.4993 24.3833L13.9993 21.6666H26.416C27.666 21.6666 28.766 20.9666 29.3327 19.9499L35.2993 9.16658C35.416 8.89992 35.4993 8.61659 35.4993 8.33325C35.4993 7.89122 35.3238 7.4673 35.0112 7.15474C34.6986 6.84218 34.2747 6.66659 33.8327 6.66659H9.18268L7.61602 3.33325M12.166 29.9999C10.316 29.9999 8.83268 31.4833 8.83268 33.3333C8.83268 34.2173 9.18387 35.0652 9.80899 35.6903C10.4341 36.3154 11.282 36.6666 12.166 36.6666C13.0501 36.6666 13.8979 36.3154 14.523 35.6903C15.1482 35.0652 15.4993 34.2173 15.4993 33.3333C15.4993 32.4492 15.1482 31.6014 14.523 30.9762C13.8979 30.3511 13.0501 29.9999 12.166 29.9999Z" fill="url(#paint0_linear_77_44)"/>
<defs>
<linearGradient id="paint0_linear_77_44" x1="2.16602" y1="19.9999" x2="35.4993" y2="19.9999" gradientUnits="userSpaceOnUse">
<stop/>
<stop offset="1" stop-color="#0CBEFF"/>
</linearGradient>
</defs>
</svg>
