<svg width="41" height="40" viewBox="0 0 41 40" fill="none" xmlns="http://www.w3.org/2000/svg">
<path d="M13 13.75C14.3261 13.75 15.5979 13.2232 16.5355 12.2855C17.4732 11.3479 18 10.0761 18 8.75C18 7.42392 17.4732 6.15215 16.5355 5.21447C15.5979 4.27678 14.3261 3.75 13 3.75C11.6739 3.75 10.4021 4.27678 9.46447 5.21447C8.52678 6.15215 8 7.42392 8 8.75C8 10.0761 8.52678 11.3479 9.46447 12.2855C10.4021 13.2232 11.6739 13.75 13 13.75ZM3 19.375C3 18.5462 3.32924 17.7513 3.91529 17.1653C4.50134 16.5792 5.2962 16.25 6.125 16.25H14.0938C13.7834 17.0469 13.6244 17.8948 13.625 18.75C13.625 21.075 14.7787 23.1313 16.5462 24.375H13.625C12.7109 24.3749 11.8143 24.6253 11.0326 25.0992C10.2509 25.573 9.61402 26.252 9.19125 27.0625C6.79625 26.4462 5.26375 25.2475 4.3175 23.8875C3 21.9938 3 20.0325 3 19.6875V19.375ZM31.8088 27.0625C34.2038 26.4462 35.7362 25.2475 36.6825 23.8875C38 21.9938 38 20.0312 38 19.6875V19.375C38 18.5462 37.6708 17.7513 37.0847 17.1653C36.4987 16.5792 35.7038 16.25 34.875 16.25H26.9062C27.2087 17.025 27.375 17.8675 27.375 18.75C27.375 21.075 26.2213 23.1313 24.4538 24.375H27.375C28.2891 24.3749 29.1857 24.6253 29.9674 25.0992C30.7491 25.573 31.386 26.252 31.8088 27.0625ZM33 8.75C33 10.0761 32.4732 11.3479 31.5355 12.2855C30.5979 13.2232 29.3261 13.75 28 13.75C26.6739 13.75 25.4021 13.2232 24.4645 12.2855C23.5268 11.3479 23 10.0761 23 8.75C23 7.42392 23.5268 6.15215 24.4645 5.21447C25.4021 4.27678 26.6739 3.75 28 3.75C29.3261 3.75 30.5979 4.27678 31.5355 5.21447C32.4732 6.15215 33 7.42392 33 8.75ZM10.5 29.375C10.5 28.5462 10.8292 27.7513 11.4153 27.1653C12.0013 26.5792 12.7962 26.25 13.625 26.25H27.375C27.7854 26.25 28.1917 26.3308 28.5709 26.4879C28.95 26.6449 29.2945 26.8751 29.5847 27.1653C29.8749 27.4555 30.1051 27.8 30.2621 28.1791C30.4192 28.5583 30.5 28.9646 30.5 29.375V29.6875C30.5 30.0312 30.5 31.9938 29.1825 33.8875C27.8075 35.8638 25.195 37.5 20.5 37.5C15.805 37.5 13.1925 35.8638 11.8175 33.8875C10.5 31.9938 10.5 30.0325 10.5 29.6875V29.375ZM20.5 23.75C21.8261 23.75 23.0979 23.2232 24.0355 22.2855C24.9732 21.3479 25.5 20.0761 25.5 18.75C25.5 17.4239 24.9732 16.1521 24.0355 15.2145C23.0979 14.2768 21.8261 13.75 20.5 13.75C19.1739 13.75 17.9021 14.2768 16.9645 15.2145C16.0268 16.1521 15.5 17.4239 15.5 18.75C15.5 20.0761 16.0268 21.3479 16.9645 22.2855C17.9021 23.2232 19.1739 23.75 20.5 23.75Z" fill="url(#paint0_linear_77_50)"/>
<defs>
<linearGradient id="paint0_linear_77_50" x1="3" y1="20.625" x2="38" y2="20.625" gradientUnits="userSpaceOnUse">
<stop/>
<stop offset="1" stop-color="#0CBEFF"/>
</linearGradient>
</defs>
</svg>
