<svg width="55" height="55" viewBox="0 0 55 55" fill="none" xmlns="http://www.w3.org/2000/svg">
<g clip-path="url(#clip0_77_363)">
<path d="M19.1598 1.80898C13.6645 3.71537 8.92529 7.33376 5.63838 12.1327C2.35148 16.9316 0.690101 22.658 0.898289 28.4709C1.10648 34.2839 3.17325 39.8768 6.79504 44.4283C10.4168 48.9797 15.4027 52.2498 21.0204 53.7582C25.5747 54.9334 30.3464 54.985 34.9251 53.9086C39.0729 52.9769 42.9077 50.984 46.054 48.125C49.3285 45.0585 51.7054 41.1575 52.929 36.8414C54.2589 32.1478 54.4956 27.2118 53.6208 22.4125H28.0458V33.0215H42.8571C42.5611 34.7135 41.9267 36.3285 40.992 37.7697C40.0573 39.2109 38.8415 40.4487 37.4173 41.409C35.6086 42.6054 33.5698 43.4104 31.4317 43.7723C29.2873 44.171 27.0878 44.171 24.9434 43.7723C22.77 43.3229 20.714 42.4259 18.9063 41.1383C16.0023 39.0826 13.8217 36.1622 12.6758 32.7938C11.5106 29.3622 11.5106 25.6421 12.6758 22.2105C13.4915 19.8052 14.8399 17.6152 16.6204 15.8039C18.6579 13.6931 21.2375 12.1842 24.0761 11.4429C26.9147 10.7016 29.9027 10.7565 32.7122 11.6016C34.9069 12.2753 36.9139 13.4524 38.5731 15.0391C40.2432 13.3776 41.9104 11.7118 43.5747 10.0418C44.4341 9.14375 45.3708 8.28867 46.2173 7.36914C43.6845 5.0122 40.7116 3.17821 37.4688 1.97227C31.5636 -0.171919 25.1023 -0.229542 19.1598 1.80898Z" fill="white"/>
<path d="M19.1594 1.809C25.1014 -0.230915 31.5627 -0.174808 37.4684 1.96798C40.7117 3.18212 43.6833 5.02494 46.2125 7.39064C45.3531 8.31017 44.4465 9.16954 43.5699 10.0633C41.9027 11.7276 40.237 13.3862 38.5727 15.0391C36.9134 13.4524 34.9064 12.2753 32.7117 11.6016C29.9032 10.7535 26.9153 10.6955 24.0759 11.4337C21.2366 12.172 18.6554 13.6781 16.6156 15.7867C14.8351 17.598 13.4868 19.7881 12.6711 22.1934L3.76367 15.2969C6.95199 8.9743 12.4724 4.13801 19.1594 1.809Z" fill="#E33629"/>
<path d="M1.39999 22.1289C1.87875 19.7561 2.6736 17.4583 3.76327 15.2969L12.6707 22.2105C11.5054 25.6421 11.5054 29.3622 12.6707 32.7938C9.70298 35.0854 6.73384 37.3885 3.76327 39.7031C1.0354 34.2732 0.203448 28.0865 1.39999 22.1289Z" fill="#F8BD00"/>
<path d="M28.0449 22.4082H53.6199C54.4947 27.2075 54.2581 32.1435 52.9281 36.8371C51.7045 41.1532 49.3276 45.0542 46.0531 48.1207C43.1785 45.8777 40.291 43.652 37.4164 41.409C38.8415 40.4477 40.058 39.2085 40.9927 37.7658C41.9274 36.3231 42.5613 34.7065 42.8562 33.0129H28.0449C28.0406 29.4809 28.0449 25.9445 28.0449 22.4082Z" fill="#587DBD"/>
<path d="M3.75977 39.7031C6.73034 37.4115 9.69948 35.1083 12.6672 32.7938C13.8153 36.1634 15.999 39.0839 18.9062 41.1383C20.7196 42.4199 22.78 43.3096 24.9563 43.7508C27.1006 44.1495 29.3001 44.1495 31.4445 43.7508C33.5826 43.3889 35.6214 42.5839 37.4301 41.3875C40.3047 43.6305 43.1922 45.8563 46.0668 48.0992C42.921 50.9598 39.0862 52.9542 34.9379 53.8871C30.3592 54.9635 25.5876 54.9119 21.0332 53.7367C17.4311 52.775 14.0666 51.0795 11.1504 48.7567C8.06378 46.3061 5.54278 43.2179 3.75977 39.7031Z" fill="#319F43"/>
</g>
<defs>
<clipPath id="clip0_77_363">
<rect width="55" height="55" fill="white"/>
</clipPath>
</defs>
</svg>
