<svg width="41" height="40" viewBox="0 0 41 40" fill="none" xmlns="http://www.w3.org/2000/svg">
<path d="M33.1667 35L22.6667 24.5C21.8333 25.1667 20.875 25.6944 19.7917 26.0833C18.7083 26.4722 17.5556 26.6667 16.3333 26.6667C13.3056 26.6667 10.7433 25.6178 8.64667 23.52C6.55 21.4222 5.50111 18.86 5.5 15.8333C5.49889 12.8067 6.54778 10.2444 8.64667 8.14667C10.7456 6.04889 13.3078 5 16.3333 5C19.3589 5 21.9217 6.04889 24.0217 8.14667C26.1217 10.2444 27.17 12.8067 27.1667 15.8333C27.1667 17.0556 26.9722 18.2083 26.5833 19.2917C26.1944 20.375 25.6667 21.3333 25 22.1667L35.5 32.6667L33.1667 35ZM16.3333 23.3333C18.4167 23.3333 20.1878 22.6044 21.6467 21.1467C23.1056 19.6889 23.8344 17.9178 23.8333 15.8333C23.8322 13.7489 23.1033 11.9783 21.6467 10.5217C20.19 9.065 18.4189 8.33556 16.3333 8.33333C14.2478 8.33111 12.4772 9.06056 11.0217 10.5217C9.56611 11.9828 8.83667 13.7533 8.83333 15.8333C8.83 17.9133 9.55945 19.6844 11.0217 21.1467C12.4839 22.6089 14.2544 23.3378 16.3333 23.3333Z" fill="#F1B570" fill-opacity="0.9"/>
</svg>
